<?xml version="1.0" encoding="UTF-8"?>
<!DOCTYPE svg PUBLIC "-//W3C//DTD SVG 1.1//EN" "http://www.w3.org/Graphics/SVG/1.1/DTD/svg11.dtd">
<svg version="1.2" width="6.61mm" height="6.61mm" viewBox="0 0 661 661" preserveAspectRatio="xMidYMid" fill-rule="evenodd" stroke-width="28.222" stroke-linejoin="round" xmlns="http://www.w3.org/2000/svg" xmlns:ooo="http://xml.openoffice.org/svg/export" xmlns:xlink="http://www.w3.org/1999/xlink" xmlns:presentation="http://sun.com/xmlns/staroffice/presentation" xmlns:smil="http://www.w3.org/2001/SMIL20/" xmlns:anim="urn:oasis:names:tc:opendocument:xmlns:animation:1.0" xmlns:svg="urn:oasis:names:tc:opendocument:xmlns:svg-compatible:1.0" xml:space="preserve">
 <defs class="ClipPathGroup">
  <clipPath id="presentation_clip_path" clipPathUnits="userSpaceOnUse">
   <rect x="0" y="0" width="661" height="661"/>
  </clipPath>
  <clipPath id="presentation_clip_path_shrink" clipPathUnits="userSpaceOnUse">
   <rect x="0" y="0" width="660" height="660"/>
  </clipPath>
 </defs>
 <defs class="TextShapeIndex">
  <g ooo:slide="id1" ooo:id-list="id3"/>
 </defs>
 <defs class="EmbeddedBulletChars">
  <g id="bullet-char-template-57356" transform="scale(0.00048828125,-0.00048828125)">
   <path d="M 580,1141 L 1163,571 580,0 -4,571 580,1141 Z"/>
  </g>
  <g id="bullet-char-template-57354" transform="scale(0.00048828125,-0.00048828125)">
   <path d="M 8,1128 L 1137,1128 1137,0 8,0 8,1128 Z"/>
  </g>
  <g id="bullet-char-template-10146" transform="scale(0.00048828125,-0.00048828125)">
   <path d="M 174,0 L 602,739 174,1481 1456,739 174,0 Z M 1358,739 L 309,1346 659,739 1358,739 Z"/>
  </g>
  <g id="bullet-char-template-10132" transform="scale(0.00048828125,-0.00048828125)">
   <path d="M 2015,739 L 1276,0 717,0 1260,543 174,543 174,936 1260,936 717,1481 1274,1481 2015,739 Z"/>
  </g>
  <g id="bullet-char-template-10007" transform="scale(0.00048828125,-0.00048828125)">
   <path d="M 0,-2 C -7,14 -16,27 -25,37 L 356,567 C 262,823 215,952 215,954 215,979 228,992 255,992 264,992 276,990 289,987 310,991 331,999 354,1012 L 381,999 492,748 772,1049 836,1024 860,1049 C 881,1039 901,1025 922,1006 886,937 835,863 770,784 769,783 710,716 594,584 L 774,223 C 774,196 753,168 711,139 L 727,119 C 717,90 699,76 672,76 641,76 570,178 457,381 L 164,-76 C 142,-110 111,-127 72,-127 30,-127 9,-110 8,-76 1,-67 -2,-52 -2,-32 -2,-23 -1,-13 0,-2 Z"/>
  </g>
  <g id="bullet-char-template-10004" transform="scale(0.00048828125,-0.00048828125)">
   <path d="M 285,-33 C 182,-33 111,30 74,156 52,228 41,333 41,471 41,549 55,616 82,672 116,743 169,778 240,778 293,778 328,747 346,684 L 369,508 C 377,444 397,411 428,410 L 1163,1116 C 1174,1127 1196,1133 1229,1133 1271,1133 1292,1118 1292,1087 L 1292,965 C 1292,929 1282,901 1262,881 L 442,47 C 390,-6 338,-33 285,-33 Z"/>
  </g>
  <g id="bullet-char-template-9679" transform="scale(0.00048828125,-0.00048828125)">
   <path d="M 813,0 C 632,0 489,54 383,161 276,268 223,411 223,592 223,773 276,916 383,1023 489,1130 632,1184 813,1184 992,1184 1136,1130 1245,1023 1353,916 1407,772 1407,592 1407,412 1353,268 1245,161 1136,54 992,0 813,0 Z"/>
  </g>
  <g id="bullet-char-template-8226" transform="scale(0.00048828125,-0.00048828125)">
   <path d="M 346,457 C 273,457 209,483 155,535 101,586 74,649 74,723 74,796 101,859 155,911 209,963 273,989 346,989 419,989 480,963 531,910 582,859 608,796 608,723 608,648 583,586 532,535 482,483 420,457 346,457 Z"/>
  </g>
  <g id="bullet-char-template-8211" transform="scale(0.00048828125,-0.00048828125)">
   <path d="M -4,459 L 1135,459 1135,606 -4,606 -4,459 Z"/>
  </g>
  <g id="bullet-char-template-61548" transform="scale(0.00048828125,-0.00048828125)">
   <path d="M 173,740 C 173,903 231,1043 346,1159 462,1274 601,1332 765,1332 928,1332 1067,1274 1183,1159 1299,1043 1357,903 1357,740 1357,577 1299,437 1183,322 1067,206 928,148 765,148 601,148 462,206 346,322 231,437 173,577 173,740 Z"/>
  </g>
 </defs>
 <g>
  <g id="id2" class="Master_Slide">
   <g id="bg-id2" class="Background"/>
   <g id="bo-id2" class="BackgroundObjects"/>
  </g>
 </g>
 <g class="SlideGroup">
  <g>
   <g id="container-id1">
    <g id="id1" class="Slide" clip-path="url(#presentation_clip_path)">
     <g class="Page">
      <g class="Group">
       <g class="com.sun.star.drawing.PolyPolygonShape">
        <g id="id3">
         <rect class="BoundingBox" stroke="none" fill="none" x="65" y="65" width="530" height="530"/>
         <path fill="rgb(235,235,211)" stroke="none" d="M 198,101 L 183,110 169,120 156,131 143,143 131,156 120,169 110,183 101,198 93,213 85,229 79,245 75,261 71,278 68,295 66,312 66,330 66,347 68,364 71,381 75,398 79,414 85,430 93,446 101,461 110,476 120,490 131,503 143,516 156,528 169,539 183,549 198,558 213,566 229,574 245,580 261,584 278,588 295,591 312,593 330,593 347,593 364,591 381,588 398,584 414,580 430,574 446,566 461,558 476,549 490,539 503,528 516,516 528,503 539,490 549,476 558,461 566,446 574,430 580,414 584,398 588,381 591,364 593,347 593,330 593,312 591,295 588,278 584,261 580,245 574,229 566,213 558,198 549,183 539,169 528,156 516,143 503,131 490,120 476,110 461,101 446,93 430,85 414,79 398,75 381,71 364,68 347,66 330,66 312,66 295,68 278,71 261,75 245,79 229,85 213,93 198,101 Z M 435,147 L 447,154 458,162 469,171 479,180 488,190 497,201 505,212 512,224 519,236 524,249 529,262 533,275 536,288 538,302 540,316 540,330 540,341 539,353 537,364 535,375 533,386 530,397 526,407 522,417 517,427 511,437 506,446 499,455 493,464 485,472 477,480 469,487 462,481 455,475 439,465 423,456 405,449 387,443 368,439 349,436 330,435 310,436 291,439 273,443 255,449 238,456 221,465 205,475 190,487 182,480 174,472 166,464 160,455 153,446 148,437 142,427 137,417 133,407 129,397 126,386 124,375 122,364 120,353 119,341 119,330 119,316 121,302 123,288 126,275 130,262 135,249 140,236 147,224 154,212 162,201 171,190 180,180 190,171 201,162 212,154 224,147 236,140 249,135 262,130 275,126 288,123 302,121 316,119 330,119 343,119 357,121 371,123 384,126 397,130 410,135 423,140 435,147 Z M 358,186 L 325,271 322,277 318,277 315,278 312,280 309,281 305,283 303,284 300,286 297,288 294,290 292,293 290,295 287,298 285,301 284,303 282,306 281,310 279,315 278,320 277,325 277,331 277,336 278,341 279,346 281,350 283,355 285,359 288,363 292,367 296,370 300,373 305,376 310,378 315,380 320,381 325,382 330,382 335,382 341,381 345,380 350,378 355,376 359,373 363,370 367,367 370,363 373,359 376,354 378,349 380,346 381,343 381,339 382,336 382,332 382,329 382,325 382,322 381,318 380,315 379,312 378,309 376,305 375,302 373,299 370,297 373,290 407,206 407,205 408,202 409,199 409,197 410,194 409,192 409,189 408,187 408,184 406,182 405,180 404,178 402,176 400,175 398,173 396,172 393,171 392,170 391,170 389,169 388,169 387,169 385,169 382,169 381,169 379,169 377,169 375,170 373,171 372,171 370,172 368,173 367,175 365,176 364,177 362,179 361,180 360,182 359,184 358,186 Z M 264,175 L 263,175 262,176 261,177 259,178 258,179 257,180 256,182 255,183 254,185 253,186 252,188 252,189 251,191 251,192 251,194 251,196 251,198 251,200 251,201 251,203 251,205 252,206 252,208 253,209 254,211 255,212 256,214 257,215 258,216 259,218 261,219 262,220 263,220 264,221 265,221 267,222 268,222 270,223 272,223 273,223 275,224 277,224 278,224 280,223 282,223 283,223 285,222 286,222 288,221 290,221 291,220 293,219 294,218 295,216 297,215 298,214 299,212 300,211 301,208 302,206 302,205 303,203 303,201 303,200 304,198 303,196 303,194 303,192 302,191 302,189 301,188 300,185 299,183 298,182 297,180 295,179 294,178 293,177 291,176 290,175 288,174 286,173 285,173 283,172 282,172 280,172 278,172 277,172 275,172 273,172 272,172 270,172 268,173 267,173 265,174 264,175 Z M 185,254 L 183,255 182,256 180,257 179,258 178,259 177,261 176,262 175,263 175,264 174,265 173,267 173,268 172,270 172,272 172,273 172,275 172,277 172,278 172,280 172,282 172,283 173,285 173,286 174,288 175,290 176,291 177,293 178,294 179,295 180,297 182,298 183,299 185,300 188,301 189,302 191,302 192,303 194,303 196,303 198,304 200,303 201,303 203,303 205,302 206,302 208,301 211,300 212,299 214,298 215,297 216,295 218,294 219,293 220,291 221,290 221,288 222,286 222,285 223,283 223,282 223,280 224,278 224,277 224,275 223,273 223,272 223,270 222,268 222,267 221,265 221,264 220,263 220,262 219,261 218,259 216,258 215,257 214,256 211,254 209,253 208,252 206,252 205,251 203,251 201,251 200,251 198,251 196,251 194,251 192,251 191,251 189,252 188,252 186,253 185,254 Z M 461,251 L 459,251 458,251 456,251 454,251 453,252 451,252 450,253 448,254 447,255 445,256 444,257 443,258 441,259 440,261 439,262 439,263 438,264 438,265 437,267 437,268 436,270 436,272 436,273 435,275 435,277 435,278 436,280 436,282 436,283 437,285 437,286 438,288 438,290 439,291 440,293 441,294 443,295 444,297 445,298 447,299 448,300 451,301 453,302 454,302 456,303 458,303 459,303 461,304 463,303 465,303 467,303 468,302 470,302 471,301 474,300 476,299 477,298 479,297 480,295 481,294 482,293 483,291 484,290 485,288 486,286 486,285 487,283 487,282 487,280 487,278 487,277 487,275 487,273 487,272 487,270 486,268 486,267 485,265 484,264 484,263 483,262 482,261 481,259 480,258 479,257 477,256 476,255 474,254 473,253 471,252 470,252 468,251 467,251 465,251 463,251 461,251 Z"/>
        </g>
       </g>
      </g>
     </g>
    </g>
   </g>
  </g>
 </g>
</svg>